<svg xmlns="http://www.w3.org/2000/svg" xmlns:xlink="http://www.w3.org/1999/xlink" width="460" zoomAndPan="magnify" viewBox="0 0 345 58.499998" height="78" preserveAspectRatio="xMidYMid meet" version="1.0"><defs><filter x="0%" y="0%" width="100%" height="100%" id="0637f0d687"><feColorMatrix values="0 0 0 0 1 0 0 0 0 1 0 0 0 0 1 0 0 0 1 0" color-interpolation-filters="sRGB"/></filter><g/><clipPath id="671289773a"><path d="M 1.460938 0 L 343.539062 0 L 343.539062 58.003906 L 1.460938 58.003906 Z M 1.460938 0 " clip-rule="nonzero"/></clipPath><clipPath id="c5070af002"><path d="M 5 0 L 334 0 L 334 58.003906 L 5 58.003906 Z M 5 0 " clip-rule="nonzero"/></clipPath><mask id="cd44946590"><g filter="url(#0637f0d687)"><rect x="-34.5" width="414" fill="#000000" y="-5.85" height="70.199998" fill-opacity="0.9"/></g></mask><clipPath id="1e1a4787e6"><path d="M 0.269531 10 L 38 10 L 38 46 L 0.269531 46 Z M 0.269531 10 " clip-rule="nonzero"/></clipPath><clipPath id="7f4b57294b"><rect x="0" width="329" y="0" height="59"/></clipPath><mask id="fd2f7b7775"><g filter="url(#0637f0d687)"><rect x="-34.5" width="414" fill="#000000" y="-5.85" height="70.199998" fill-opacity="0.9"/></g></mask><clipPath id="33fd7bad71"><rect x="0" width="38" y="0" height="45"/></clipPath></defs><g clip-path="url(#671289773a)"><path fill="#ffffff" d="M 1.460938 0 L 343.539062 0 L 343.539062 58.003906 L 1.460938 58.003906 Z M 1.460938 0 " fill-opacity="1" fill-rule="nonzero"/><path fill="#ffffff" d="M 1.460938 0 L 343.539062 0 L 343.539062 58.003906 L 1.460938 58.003906 Z M 1.460938 0 " fill-opacity="1" fill-rule="nonzero"/></g><g clip-path="url(#c5070af002)"><g mask="url(#cd44946590)"><g transform="matrix(1, 0, 0, 1, 5, 0)"><g clip-path="url(#7f4b57294b)"><g fill="#000c20" fill-opacity="0.4"><g transform="translate(3.362355, 46.718931)"><g><path d="M 35.046875 -24.25 C 35.046875 -21.757812 34.671875 -19.328125 33.921875 -16.953125 C 33.179688 -14.578125 32.101562 -12.367188 30.6875 -10.328125 C 29.28125 -8.285156 27.601562 -6.492188 25.65625 -4.953125 C 23.71875 -3.410156 21.550781 -2.195312 19.15625 -1.3125 C 16.769531 -0.4375 14.203125 0 11.453125 0 C 10.953125 0 10.285156 -0.015625 9.453125 -0.046875 C 8.628906 -0.078125 7.773438 -0.101562 6.890625 -0.125 C 6.015625 -0.144531 5.210938 -0.15625 4.484375 -0.15625 C 3.710938 -0.15625 2.945312 -0.144531 2.1875 -0.125 C 1.425781 -0.101562 0.726562 -0.0820312 0.09375 -0.0625 C -0.53125 -0.0507812 -1.0625 -0.03125 -1.5 0 L -1.34375 -1 C -0.28125 -1.0625 0.554688 -1.191406 1.171875 -1.390625 C 1.785156 -1.585938 2.273438 -1.984375 2.640625 -2.578125 C 3.003906 -3.179688 3.335938 -4.082031 3.640625 -5.28125 L 10.15625 -29.96875 C 10.457031 -31.0625 10.609375 -31.914062 10.609375 -32.53125 C 10.609375 -33.144531 10.359375 -33.578125 9.859375 -33.828125 C 9.359375 -34.078125 8.492188 -34.21875 7.265625 -34.25 L 7.421875 -35.25 C 7.878906 -35.21875 8.441406 -35.179688 9.109375 -35.140625 C 9.773438 -35.109375 10.488281 -35.09375 11.25 -35.09375 C 12.007812 -35.09375 12.753906 -35.09375 13.484375 -35.09375 C 14.253906 -35.125 15.101562 -35.148438 16.03125 -35.171875 C 16.957031 -35.191406 17.859375 -35.207031 18.734375 -35.21875 C 19.617188 -35.238281 20.375 -35.25 21 -35.25 C 25.71875 -35.25 29.238281 -34.3125 31.5625 -32.4375 C 33.882812 -30.5625 35.046875 -27.832031 35.046875 -24.25 Z M 10.859375 -0.890625 C 13.410156 -0.890625 15.710938 -1.320312 17.765625 -2.1875 C 19.828125 -3.050781 21.632812 -4.265625 23.1875 -5.828125 C 24.75 -7.390625 26.050781 -9.195312 27.09375 -11.25 C 28.144531 -13.3125 28.9375 -15.550781 29.46875 -17.96875 C 30 -20.394531 30.265625 -22.898438 30.265625 -25.484375 C 30.265625 -28.441406 29.429688 -30.65625 27.765625 -32.125 C 26.109375 -33.601562 23.390625 -34.34375 19.609375 -34.34375 C 18.617188 -34.34375 17.820312 -34.226562 17.21875 -34 C 16.625 -33.769531 16.144531 -33.347656 15.78125 -32.734375 C 15.414062 -32.117188 15.082031 -31.226562 14.78125 -30.0625 L 8.265625 -5.171875 C 7.992188 -4.210938 7.84375 -3.410156 7.8125 -2.765625 C 7.78125 -2.117188 7.988281 -1.644531 8.4375 -1.34375 C 8.882812 -1.039062 9.691406 -0.890625 10.859375 -0.890625 Z M 10.859375 -0.890625 "/></g></g></g><g fill="#000c20" fill-opacity="0.4"><g transform="translate(35.167339, 46.718931)"><g><path d="M 4.1875 -11.296875 C 6.039062 -11.929688 7.722656 -12.554688 9.234375 -13.171875 C 10.742188 -13.785156 11.945312 -14.441406 12.84375 -15.140625 C 14.039062 -16.097656 14.984375 -17.253906 15.671875 -18.609375 C 16.367188 -19.972656 16.71875 -21.46875 16.71875 -23.09375 C 16.71875 -24.0625 16.648438 -24.675781 16.515625 -24.9375 C 16.390625 -25.207031 16.195312 -25.34375 15.9375 -25.34375 C 15.101562 -25.34375 14.203125 -24.972656 13.234375 -24.234375 C 12.273438 -23.503906 11.332031 -22.5 10.40625 -21.21875 C 9.476562 -19.945312 8.625 -18.5 7.84375 -16.875 C 7.0625 -15.25 6.4375 -13.515625 5.96875 -11.671875 C 5.507812 -9.828125 5.28125 -7.992188 5.28125 -6.171875 C 5.28125 -4.484375 5.59375 -3.265625 6.21875 -2.515625 C 6.851562 -1.765625 7.6875 -1.390625 8.71875 -1.390625 C 9.90625 -1.390625 11.160156 -1.753906 12.484375 -2.484375 C 13.816406 -3.210938 15.113281 -4.507812 16.375 -6.375 L 17.171875 -5.96875 C 16.546875 -4.875 15.71875 -3.8125 14.6875 -2.78125 C 13.65625 -1.757812 12.5 -0.921875 11.21875 -0.265625 C 9.945312 0.378906 8.597656 0.703125 7.171875 0.703125 C 5.835938 0.703125 4.671875 0.4375 3.671875 -0.09375 C 2.679688 -0.625 1.921875 -1.410156 1.390625 -2.453125 C 0.859375 -3.503906 0.59375 -4.796875 0.59375 -6.328125 C 0.59375 -7.753906 0.859375 -9.351562 1.390625 -11.125 C 1.921875 -12.90625 2.675781 -14.679688 3.65625 -16.453125 C 4.632812 -18.222656 5.800781 -19.851562 7.15625 -21.34375 C 8.519531 -22.84375 10.03125 -24.039062 11.6875 -24.9375 C 13.351562 -25.832031 15.132812 -26.28125 17.03125 -26.28125 C 18.050781 -26.28125 18.914062 -26.003906 19.625 -25.453125 C 20.34375 -24.910156 20.703125 -24.09375 20.703125 -23 C 20.703125 -21.664062 20.3125 -20.425781 19.53125 -19.28125 C 18.757812 -18.144531 17.734375 -17.101562 16.453125 -16.15625 C 15.171875 -15.207031 13.785156 -14.367188 12.296875 -13.640625 C 10.804688 -12.910156 9.347656 -12.28125 7.921875 -11.75 C 6.492188 -11.21875 5.226562 -10.785156 4.125 -10.453125 Z M 4.1875 -11.296875 "/></g></g></g><g fill="#000c20" fill-opacity="0.4"><g transform="translate(52.239151, 46.718931)"><g><path d="M 2.9375 -0.75 C 3.195312 -0.613281 3.484375 -0.503906 3.796875 -0.421875 C 4.117188 -0.335938 4.597656 -0.296875 5.234375 -0.296875 C 6.691406 -0.296875 7.890625 -0.734375 8.828125 -1.609375 C 9.773438 -2.492188 10.25 -3.765625 10.25 -5.421875 C 10.25 -6.453125 10.054688 -7.472656 9.671875 -8.484375 C 9.296875 -9.492188 8.628906 -10.664062 7.671875 -12 C 6.898438 -13.0625 6.164062 -14.144531 5.46875 -15.25 C 4.78125 -16.363281 4.4375 -17.6875 4.4375 -19.21875 C 4.4375 -20.644531 4.78125 -21.878906 5.46875 -22.921875 C 6.164062 -23.972656 7.101562 -24.796875 8.28125 -25.390625 C 9.46875 -25.984375 10.753906 -26.28125 12.140625 -26.28125 C 13.109375 -26.28125 14.054688 -26.164062 14.984375 -25.9375 C 15.910156 -25.707031 16.679688 -25.285156 17.296875 -24.671875 C 17.910156 -24.054688 18.21875 -23.148438 18.21875 -21.953125 C 18.21875 -21.648438 18.140625 -21.289062 17.984375 -20.875 C 17.835938 -20.46875 17.597656 -20.113281 17.265625 -19.8125 C 16.941406 -19.507812 16.5 -19.359375 15.9375 -19.359375 C 15.40625 -19.359375 14.9375 -19.550781 14.53125 -19.9375 C 14.132812 -20.320312 13.9375 -20.828125 13.9375 -21.453125 C 13.9375 -22.054688 14.0625 -22.628906 14.3125 -23.171875 C 14.5625 -23.722656 14.898438 -24.265625 15.328125 -24.796875 C 14.703125 -25.191406 13.875 -25.390625 12.84375 -25.390625 C 11.613281 -25.390625 10.582031 -24.972656 9.75 -24.140625 C 8.925781 -23.316406 8.515625 -22.15625 8.515625 -20.65625 C 8.515625 -19.894531 8.628906 -19.222656 8.859375 -18.640625 C 9.085938 -18.054688 9.425781 -17.445312 9.875 -16.8125 C 10.320312 -16.1875 10.863281 -15.394531 11.5 -14.4375 C 12.332031 -13.175781 13.03125 -11.960938 13.59375 -10.796875 C 14.15625 -9.640625 14.4375 -8.414062 14.4375 -7.125 C 14.4375 -5.59375 14.046875 -4.238281 13.265625 -3.0625 C 12.484375 -1.882812 11.445312 -0.960938 10.15625 -0.296875 C 8.863281 0.367188 7.4375 0.703125 5.875 0.703125 C 4.75 0.703125 3.671875 0.535156 2.640625 0.203125 C 1.609375 -0.128906 0.769531 -0.648438 0.125 -1.359375 C -0.519531 -2.078125 -0.84375 -3.035156 -0.84375 -4.234375 C -0.84375 -4.691406 -0.703125 -5.175781 -0.421875 -5.6875 C -0.140625 -6.207031 0.363281 -6.46875 1.09375 -6.46875 C 1.894531 -6.46875 2.457031 -6.144531 2.78125 -5.5 C 3.113281 -4.851562 3.28125 -4.128906 3.28125 -3.328125 C 3.28125 -2.796875 3.238281 -2.320312 3.15625 -1.90625 C 3.070312 -1.5 3 -1.113281 2.9375 -0.75 Z M 2.9375 -0.75 "/></g></g></g><g fill="#000c20" fill-opacity="0.4"><g transform="translate(66.921792, 46.718931)"><g><path d="M 9.40625 -34.640625 C 9.570312 -35.503906 10.007812 -36.25 10.71875 -36.875 C 11.4375 -37.507812 12.210938 -37.828125 13.046875 -37.828125 C 13.910156 -37.828125 14.582031 -37.507812 15.0625 -36.875 C 15.539062 -36.25 15.695312 -35.503906 15.53125 -34.640625 C 15.363281 -33.785156 14.921875 -33.039062 14.203125 -32.40625 C 13.492188 -31.78125 12.707031 -31.46875 11.84375 -31.46875 C 11.019531 -31.46875 10.363281 -31.78125 9.875 -32.40625 C 9.394531 -33.039062 9.238281 -33.785156 9.40625 -34.640625 Z M 7.859375 -21.359375 C 8.554688 -23.410156 8.328125 -24.4375 7.171875 -24.4375 C 6.410156 -24.4375 5.726562 -24.019531 5.125 -23.1875 C 4.53125 -22.363281 3.898438 -21.085938 3.234375 -19.359375 L 2.53125 -17.515625 L 1.59375 -17.515625 L 2.890625 -21.15625 C 3.390625 -22.550781 3.984375 -23.613281 4.671875 -24.34375 C 5.367188 -25.070312 6.109375 -25.578125 6.890625 -25.859375 C 7.671875 -26.140625 8.394531 -26.28125 9.0625 -26.28125 C 10.125 -26.28125 10.898438 -26.0625 11.390625 -25.625 C 11.890625 -25.195312 12.191406 -24.632812 12.296875 -23.9375 C 12.398438 -23.25 12.367188 -22.492188 12.203125 -21.671875 C 12.035156 -20.859375 11.816406 -20.070312 11.546875 -19.3125 L 6.21875 -4.234375 C 5.882812 -3.265625 5.773438 -2.503906 5.890625 -1.953125 C 6.015625 -1.410156 6.390625 -1.140625 7.015625 -1.140625 C 7.679688 -1.140625 8.3125 -1.503906 8.90625 -2.234375 C 9.507812 -2.960938 10.175781 -4.289062 10.90625 -6.21875 L 11.59375 -8.0625 L 12.546875 -8.0625 L 11.25 -4.4375 C 10.78125 -3.132812 10.210938 -2.109375 9.546875 -1.359375 C 8.890625 -0.617188 8.175781 -0.09375 7.40625 0.21875 C 6.644531 0.539062 5.882812 0.703125 5.125 0.703125 C 3.695312 0.703125 2.734375 0.367188 2.234375 -0.296875 C 1.742188 -0.960938 1.5625 -1.828125 1.6875 -2.890625 C 1.820312 -3.953125 2.101562 -5.078125 2.53125 -6.265625 Z M 7.859375 -21.359375 "/></g></g></g><g fill="#000c20" fill-opacity="0.4"><g transform="translate(77.672266, 46.718931)"><g><path d="M 10.75 -11.203125 L 12 -11.15625 C 10.800781 -10.488281 9.695312 -9.878906 8.6875 -9.328125 C 7.675781 -8.785156 6.851562 -8.28125 6.21875 -7.8125 C 5.59375 -7.351562 5.28125 -6.90625 5.28125 -6.46875 C 5.28125 -6.132812 5.507812 -5.828125 5.96875 -5.546875 C 6.4375 -5.265625 7.203125 -4.992188 8.265625 -4.734375 L 11.890625 -3.78125 C 12.953125 -3.519531 13.90625 -3.210938 14.75 -2.859375 C 15.601562 -2.515625 16.273438 -2.078125 16.765625 -1.546875 C 17.265625 -1.015625 17.515625 -0.316406 17.515625 0.546875 C 17.515625 1.378906 17.238281 2.316406 16.6875 3.359375 C 16.144531 4.398438 15.300781 5.398438 14.15625 6.359375 C 13.019531 7.328125 11.535156 8.125 9.703125 8.75 C 7.878906 9.382812 5.675781 9.703125 3.09375 9.703125 C 1.363281 9.703125 -0.0859375 9.546875 -1.265625 9.234375 C -2.441406 8.921875 -3.320312 8.476562 -3.90625 7.90625 C -4.488281 7.34375 -4.78125 6.695312 -4.78125 5.96875 C -4.78125 5.4375 -4.628906 4.878906 -4.328125 4.296875 C -4.035156 3.722656 -3.597656 3.160156 -3.015625 2.609375 C -2.429688 2.066406 -1.695312 1.550781 -0.8125 1.0625 C 0.0625 0.582031 1.097656 0.175781 2.296875 -0.15625 L 2.640625 0.59375 C 1.410156 1.226562 0.5625 1.941406 0.09375 2.734375 C -0.363281 3.535156 -0.59375 4.332031 -0.59375 5.125 C -0.59375 6.457031 -0.128906 7.410156 0.796875 7.984375 C 1.722656 8.566406 2.867188 8.859375 4.234375 8.859375 C 5.328125 8.859375 6.453125 8.679688 7.609375 8.328125 C 8.773438 7.984375 9.851562 7.519531 10.84375 6.9375 C 11.84375 6.363281 12.640625 5.691406 13.234375 4.921875 C 13.835938 4.160156 14.140625 3.363281 14.140625 2.53125 C 14.140625 2.039062 13.976562 1.710938 13.65625 1.546875 C 13.34375 1.378906 12.820312 1.210938 12.09375 1.046875 L 4.484375 -0.890625 C 3.679688 -1.085938 3.03125 -1.425781 2.53125 -1.90625 C 2.039062 -2.394531 1.796875 -3.054688 1.796875 -3.890625 C 1.796875 -4.546875 2.023438 -5.222656 2.484375 -5.921875 C 2.953125 -6.617188 3.832031 -7.390625 5.125 -8.234375 C 6.414062 -9.085938 8.289062 -10.078125 10.75 -11.203125 Z M 13.296875 -25.390625 C 12.234375 -25.390625 11.335938 -25.082031 10.609375 -24.46875 C 9.878906 -23.851562 9.269531 -23.070312 8.78125 -22.125 C 8.300781 -21.175781 7.9375 -20.1875 7.6875 -19.15625 C 7.4375 -18.132812 7.257812 -17.195312 7.15625 -16.34375 C 7.0625 -15.5 7.015625 -14.878906 7.015625 -14.484375 C 7.015625 -13.421875 7.253906 -12.65625 7.734375 -12.1875 C 8.222656 -11.726562 8.863281 -11.5 9.65625 -11.5 C 10.914062 -11.5 11.9375 -11.878906 12.71875 -12.640625 C 13.5 -13.410156 14.101562 -14.359375 14.53125 -15.484375 C 14.96875 -16.609375 15.257812 -17.734375 15.40625 -18.859375 C 15.550781 -19.992188 15.625 -20.941406 15.625 -21.703125 C 15.625 -22.828125 15.472656 -23.722656 15.171875 -24.390625 C 14.878906 -25.054688 14.253906 -25.390625 13.296875 -25.390625 Z M 13.484375 -26.28125 C 15.441406 -26.28125 17.023438 -25.835938 18.234375 -24.953125 C 19.453125 -24.078125 20.0625 -22.660156 20.0625 -20.703125 C 20.0625 -19.109375 19.613281 -17.53125 18.71875 -15.96875 C 17.820312 -14.414062 16.5625 -13.132812 14.9375 -12.125 C 13.3125 -11.113281 11.382812 -10.609375 9.15625 -10.609375 C 7.332031 -10.609375 5.796875 -11.046875 4.546875 -11.921875 C 3.304688 -12.796875 2.6875 -14.164062 2.6875 -16.03125 C 2.6875 -16.925781 2.875 -17.960938 3.25 -19.140625 C 3.632812 -20.316406 4.242188 -21.441406 5.078125 -22.515625 C 5.910156 -23.597656 7.015625 -24.492188 8.390625 -25.203125 C 9.765625 -25.921875 11.460938 -26.28125 13.484375 -26.28125 Z M 17.03125 -23.703125 L 16.125 -24.046875 C 16.59375 -25.171875 17.390625 -26.164062 18.515625 -27.03125 C 19.648438 -27.894531 20.828125 -28.328125 22.046875 -28.328125 C 22.910156 -28.328125 23.609375 -28.082031 24.140625 -27.59375 C 24.671875 -27.113281 24.9375 -26.363281 24.9375 -25.34375 C 24.9375 -24.40625 24.703125 -23.722656 24.234375 -23.296875 C 23.773438 -22.867188 23.28125 -22.65625 22.75 -22.65625 C 22.21875 -22.65625 21.710938 -22.828125 21.234375 -23.171875 C 20.753906 -23.523438 20.460938 -24.082031 20.359375 -24.84375 C 20.265625 -25.601562 20.476562 -26.582031 21 -27.78125 L 21.65625 -27.625 C 20.257812 -27.09375 19.257812 -26.535156 18.65625 -25.953125 C 18.0625 -25.378906 17.519531 -24.628906 17.03125 -23.703125 Z M 17.03125 -23.703125 "/></g></g></g><g fill="#000c20" fill-opacity="0.4"><g transform="translate(95.739561, 46.718931)"><g><path d="M 6.078125 0 L 1.75 0 L 7.71875 -21.359375 C 7.851562 -21.753906 7.960938 -22.191406 8.046875 -22.671875 C 8.128906 -23.148438 8.101562 -23.5625 7.96875 -23.90625 C 7.832031 -24.257812 7.5 -24.4375 6.96875 -24.4375 C 6.238281 -24.4375 5.59375 -24.078125 5.03125 -23.359375 C 4.46875 -22.648438 3.835938 -21.316406 3.140625 -19.359375 L 2.484375 -17.515625 L 1.546875 -17.515625 L 2.78125 -21.15625 C 3.519531 -23.25 4.425781 -24.625 5.5 -25.28125 C 6.582031 -25.945312 7.65625 -26.28125 8.71875 -26.28125 C 9.707031 -26.28125 10.425781 -26.0625 10.875 -25.625 C 11.320312 -25.195312 11.570312 -24.644531 11.625 -23.96875 C 11.675781 -23.289062 11.625 -22.546875 11.46875 -21.734375 C 11.320312 -20.921875 11.148438 -20.113281 10.953125 -19.3125 Z M 8.359375 -10.359375 C 9.523438 -13.335938 10.65625 -15.835938 11.75 -17.859375 C 12.84375 -19.890625 13.921875 -21.523438 14.984375 -22.765625 C 16.046875 -24.015625 17.128906 -24.910156 18.234375 -25.453125 C 19.347656 -26.003906 20.503906 -26.28125 21.703125 -26.28125 C 23.265625 -26.28125 24.332031 -25.90625 24.90625 -25.15625 C 25.488281 -24.414062 25.75 -23.472656 25.6875 -22.328125 C 25.625 -21.179688 25.390625 -19.992188 24.984375 -18.765625 L 20.15625 -4.234375 C 19.863281 -3.335938 19.738281 -2.597656 19.78125 -2.015625 C 19.832031 -1.429688 20.222656 -1.140625 20.953125 -1.140625 C 21.585938 -1.140625 22.210938 -1.488281 22.828125 -2.1875 C 23.441406 -2.882812 24.097656 -4.226562 24.796875 -6.21875 L 25.4375 -8.0625 L 26.390625 -8.0625 L 25.140625 -4.4375 C 24.671875 -3.039062 24.097656 -1.976562 23.421875 -1.25 C 22.742188 -0.519531 22.03125 -0.015625 21.28125 0.265625 C 20.53125 0.554688 19.804688 0.703125 19.109375 0.703125 C 18.316406 0.703125 17.660156 0.566406 17.140625 0.296875 C 16.628906 0.0351562 16.242188 -0.3125 15.984375 -0.75 C 15.617188 -1.34375 15.5 -2.117188 15.625 -3.078125 C 15.757812 -4.046875 16.023438 -5.109375 16.421875 -6.265625 L 21.15625 -20.515625 C 21.320312 -20.972656 21.460938 -21.523438 21.578125 -22.171875 C 21.691406 -22.816406 21.664062 -23.394531 21.5 -23.90625 C 21.332031 -24.425781 20.851562 -24.6875 20.0625 -24.6875 C 19.257812 -24.6875 18.410156 -24.335938 17.515625 -23.640625 C 16.617188 -22.941406 15.691406 -21.953125 14.734375 -20.671875 C 13.773438 -19.398438 12.828125 -17.875 11.890625 -16.09375 C 10.960938 -14.320312 10.078125 -12.363281 9.234375 -10.21875 C 8.390625 -8.082031 7.617188 -5.804688 6.921875 -3.390625 Z M 8.359375 -10.359375 "/></g></g></g><g clip-path="url(#1e1a4787e6)"><g fill="#000c20" fill-opacity="1"><g transform="translate(2.262294, 45.61887)"><g><path d="M 35.046875 -24.25 C 35.046875 -21.757812 34.671875 -19.328125 33.921875 -16.953125 C 33.179688 -14.578125 32.101562 -12.367188 30.6875 -10.328125 C 29.28125 -8.285156 27.601562 -6.492188 25.65625 -4.953125 C 23.71875 -3.410156 21.550781 -2.195312 19.15625 -1.3125 C 16.769531 -0.4375 14.203125 0 11.453125 0 C 10.953125 0 10.285156 -0.015625 9.453125 -0.046875 C 8.628906 -0.078125 7.773438 -0.101562 6.890625 -0.125 C 6.015625 -0.144531 5.210938 -0.15625 4.484375 -0.15625 C 3.710938 -0.15625 2.945312 -0.144531 2.1875 -0.125 C 1.425781 -0.101562 0.726562 -0.0820312 0.09375 -0.0625 C -0.53125 -0.0507812 -1.0625 -0.03125 -1.5 0 L -1.34375 -1 C -0.28125 -1.0625 0.554688 -1.191406 1.171875 -1.390625 C 1.785156 -1.585938 2.273438 -1.984375 2.640625 -2.578125 C 3.003906 -3.179688 3.335938 -4.082031 3.640625 -5.28125 L 10.15625 -29.96875 C 10.457031 -31.0625 10.609375 -31.914062 10.609375 -32.53125 C 10.609375 -33.144531 10.359375 -33.578125 9.859375 -33.828125 C 9.359375 -34.078125 8.492188 -34.21875 7.265625 -34.25 L 7.421875 -35.25 C 7.878906 -35.21875 8.441406 -35.179688 9.109375 -35.140625 C 9.773438 -35.109375 10.488281 -35.09375 11.25 -35.09375 C 12.007812 -35.09375 12.753906 -35.09375 13.484375 -35.09375 C 14.253906 -35.125 15.101562 -35.148438 16.03125 -35.171875 C 16.957031 -35.191406 17.859375 -35.207031 18.734375 -35.21875 C 19.617188 -35.238281 20.375 -35.25 21 -35.25 C 25.71875 -35.25 29.238281 -34.3125 31.5625 -32.4375 C 33.882812 -30.5625 35.046875 -27.832031 35.046875 -24.25 Z M 10.859375 -0.890625 C 13.410156 -0.890625 15.710938 -1.320312 17.765625 -2.1875 C 19.828125 -3.050781 21.632812 -4.265625 23.1875 -5.828125 C 24.75 -7.390625 26.050781 -9.195312 27.09375 -11.25 C 28.144531 -13.3125 28.9375 -15.550781 29.46875 -17.96875 C 30 -20.394531 30.265625 -22.898438 30.265625 -25.484375 C 30.265625 -28.441406 29.429688 -30.65625 27.765625 -32.125 C 26.109375 -33.601562 23.390625 -34.34375 19.609375 -34.34375 C 18.617188 -34.34375 17.820312 -34.226562 17.21875 -34 C 16.625 -33.769531 16.144531 -33.347656 15.78125 -32.734375 C 15.414062 -32.117188 15.082031 -31.226562 14.78125 -30.0625 L 8.265625 -5.171875 C 7.992188 -4.210938 7.84375 -3.410156 7.8125 -2.765625 C 7.78125 -2.117188 7.988281 -1.644531 8.4375 -1.34375 C 8.882812 -1.039062 9.691406 -0.890625 10.859375 -0.890625 Z M 10.859375 -0.890625 "/></g></g></g></g><g fill="#000c20" fill-opacity="1"><g transform="translate(34.067278, 45.61887)"><g><path d="M 4.1875 -11.296875 C 6.039062 -11.929688 7.722656 -12.554688 9.234375 -13.171875 C 10.742188 -13.785156 11.945312 -14.441406 12.84375 -15.140625 C 14.039062 -16.097656 14.984375 -17.253906 15.671875 -18.609375 C 16.367188 -19.972656 16.71875 -21.46875 16.71875 -23.09375 C 16.71875 -24.0625 16.648438 -24.675781 16.515625 -24.9375 C 16.390625 -25.207031 16.195312 -25.34375 15.9375 -25.34375 C 15.101562 -25.34375 14.203125 -24.972656 13.234375 -24.234375 C 12.273438 -23.503906 11.332031 -22.5 10.40625 -21.21875 C 9.476562 -19.945312 8.625 -18.5 7.84375 -16.875 C 7.0625 -15.25 6.4375 -13.515625 5.96875 -11.671875 C 5.507812 -9.828125 5.28125 -7.992188 5.28125 -6.171875 C 5.28125 -4.484375 5.59375 -3.265625 6.21875 -2.515625 C 6.851562 -1.765625 7.6875 -1.390625 8.71875 -1.390625 C 9.90625 -1.390625 11.160156 -1.753906 12.484375 -2.484375 C 13.816406 -3.210938 15.113281 -4.507812 16.375 -6.375 L 17.171875 -5.96875 C 16.546875 -4.875 15.71875 -3.8125 14.6875 -2.78125 C 13.65625 -1.757812 12.5 -0.921875 11.21875 -0.265625 C 9.945312 0.378906 8.597656 0.703125 7.171875 0.703125 C 5.835938 0.703125 4.671875 0.4375 3.671875 -0.09375 C 2.679688 -0.625 1.921875 -1.410156 1.390625 -2.453125 C 0.859375 -3.503906 0.59375 -4.796875 0.59375 -6.328125 C 0.59375 -7.753906 0.859375 -9.351562 1.390625 -11.125 C 1.921875 -12.90625 2.675781 -14.679688 3.65625 -16.453125 C 4.632812 -18.222656 5.800781 -19.851562 7.15625 -21.34375 C 8.519531 -22.84375 10.03125 -24.039062 11.6875 -24.9375 C 13.351562 -25.832031 15.132812 -26.28125 17.03125 -26.28125 C 18.050781 -26.28125 18.914062 -26.003906 19.625 -25.453125 C 20.34375 -24.910156 20.703125 -24.09375 20.703125 -23 C 20.703125 -21.664062 20.3125 -20.425781 19.53125 -19.28125 C 18.757812 -18.144531 17.734375 -17.101562 16.453125 -16.15625 C 15.171875 -15.207031 13.785156 -14.367188 12.296875 -13.640625 C 10.804688 -12.910156 9.347656 -12.28125 7.921875 -11.75 C 6.492188 -11.21875 5.226562 -10.785156 4.125 -10.453125 Z M 4.1875 -11.296875 "/></g></g></g><g fill="#000c20" fill-opacity="1"><g transform="translate(51.13909, 45.61887)"><g><path d="M 2.9375 -0.75 C 3.195312 -0.613281 3.484375 -0.503906 3.796875 -0.421875 C 4.117188 -0.335938 4.597656 -0.296875 5.234375 -0.296875 C 6.691406 -0.296875 7.890625 -0.734375 8.828125 -1.609375 C 9.773438 -2.492188 10.25 -3.765625 10.25 -5.421875 C 10.25 -6.453125 10.054688 -7.472656 9.671875 -8.484375 C 9.296875 -9.492188 8.628906 -10.664062 7.671875 -12 C 6.898438 -13.0625 6.164062 -14.144531 5.46875 -15.25 C 4.78125 -16.363281 4.4375 -17.6875 4.4375 -19.21875 C 4.4375 -20.644531 4.78125 -21.878906 5.46875 -22.921875 C 6.164062 -23.972656 7.101562 -24.796875 8.28125 -25.390625 C 9.46875 -25.984375 10.753906 -26.28125 12.140625 -26.28125 C 13.109375 -26.28125 14.054688 -26.164062 14.984375 -25.9375 C 15.910156 -25.707031 16.679688 -25.285156 17.296875 -24.671875 C 17.910156 -24.054688 18.21875 -23.148438 18.21875 -21.953125 C 18.21875 -21.648438 18.140625 -21.289062 17.984375 -20.875 C 17.835938 -20.46875 17.597656 -20.113281 17.265625 -19.8125 C 16.941406 -19.507812 16.5 -19.359375 15.9375 -19.359375 C 15.40625 -19.359375 14.9375 -19.550781 14.53125 -19.9375 C 14.132812 -20.320312 13.9375 -20.828125 13.9375 -21.453125 C 13.9375 -22.054688 14.0625 -22.628906 14.3125 -23.171875 C 14.5625 -23.722656 14.898438 -24.265625 15.328125 -24.796875 C 14.703125 -25.191406 13.875 -25.390625 12.84375 -25.390625 C 11.613281 -25.390625 10.582031 -24.972656 9.75 -24.140625 C 8.925781 -23.316406 8.515625 -22.15625 8.515625 -20.65625 C 8.515625 -19.894531 8.628906 -19.222656 8.859375 -18.640625 C 9.085938 -18.054688 9.425781 -17.445312 9.875 -16.8125 C 10.320312 -16.1875 10.863281 -15.394531 11.5 -14.4375 C 12.332031 -13.175781 13.03125 -11.960938 13.59375 -10.796875 C 14.15625 -9.640625 14.4375 -8.414062 14.4375 -7.125 C 14.4375 -5.59375 14.046875 -4.238281 13.265625 -3.0625 C 12.484375 -1.882812 11.445312 -0.960938 10.15625 -0.296875 C 8.863281 0.367188 7.4375 0.703125 5.875 0.703125 C 4.75 0.703125 3.671875 0.535156 2.640625 0.203125 C 1.609375 -0.128906 0.769531 -0.648438 0.125 -1.359375 C -0.519531 -2.078125 -0.84375 -3.035156 -0.84375 -4.234375 C -0.84375 -4.691406 -0.703125 -5.175781 -0.421875 -5.6875 C -0.140625 -6.207031 0.363281 -6.46875 1.09375 -6.46875 C 1.894531 -6.46875 2.457031 -6.144531 2.78125 -5.5 C 3.113281 -4.851562 3.28125 -4.128906 3.28125 -3.328125 C 3.28125 -2.796875 3.238281 -2.320312 3.15625 -1.90625 C 3.070312 -1.5 3 -1.113281 2.9375 -0.75 Z M 2.9375 -0.75 "/></g></g></g><g fill="#000c20" fill-opacity="1"><g transform="translate(65.821731, 45.61887)"><g><path d="M 9.40625 -34.640625 C 9.570312 -35.503906 10.007812 -36.25 10.71875 -36.875 C 11.4375 -37.507812 12.210938 -37.828125 13.046875 -37.828125 C 13.910156 -37.828125 14.582031 -37.507812 15.0625 -36.875 C 15.539062 -36.25 15.695312 -35.503906 15.53125 -34.640625 C 15.363281 -33.785156 14.921875 -33.039062 14.203125 -32.40625 C 13.492188 -31.78125 12.707031 -31.46875 11.84375 -31.46875 C 11.019531 -31.46875 10.363281 -31.78125 9.875 -32.40625 C 9.394531 -33.039062 9.238281 -33.785156 9.40625 -34.640625 Z M 7.859375 -21.359375 C 8.554688 -23.410156 8.328125 -24.4375 7.171875 -24.4375 C 6.410156 -24.4375 5.726562 -24.019531 5.125 -23.1875 C 4.53125 -22.363281 3.898438 -21.085938 3.234375 -19.359375 L 2.53125 -17.515625 L 1.59375 -17.515625 L 2.890625 -21.15625 C 3.390625 -22.550781 3.984375 -23.613281 4.671875 -24.34375 C 5.367188 -25.070312 6.109375 -25.578125 6.890625 -25.859375 C 7.671875 -26.140625 8.394531 -26.28125 9.0625 -26.28125 C 10.125 -26.28125 10.898438 -26.0625 11.390625 -25.625 C 11.890625 -25.195312 12.191406 -24.632812 12.296875 -23.9375 C 12.398438 -23.25 12.367188 -22.492188 12.203125 -21.671875 C 12.035156 -20.859375 11.816406 -20.070312 11.546875 -19.3125 L 6.21875 -4.234375 C 5.882812 -3.265625 5.773438 -2.503906 5.890625 -1.953125 C 6.015625 -1.410156 6.390625 -1.140625 7.015625 -1.140625 C 7.679688 -1.140625 8.3125 -1.503906 8.90625 -2.234375 C 9.507812 -2.960938 10.175781 -4.289062 10.90625 -6.21875 L 11.59375 -8.0625 L 12.546875 -8.0625 L 11.25 -4.4375 C 10.78125 -3.132812 10.210938 -2.109375 9.546875 -1.359375 C 8.890625 -0.617188 8.175781 -0.09375 7.40625 0.21875 C 6.644531 0.539062 5.882812 0.703125 5.125 0.703125 C 3.695312 0.703125 2.734375 0.367188 2.234375 -0.296875 C 1.742188 -0.960938 1.5625 -1.828125 1.6875 -2.890625 C 1.820312 -3.953125 2.101562 -5.078125 2.53125 -6.265625 Z M 7.859375 -21.359375 "/></g></g></g><g fill="#000c20" fill-opacity="1"><g transform="translate(76.572205, 45.61887)"><g><path d="M 10.75 -11.203125 L 12 -11.15625 C 10.800781 -10.488281 9.695312 -9.878906 8.6875 -9.328125 C 7.675781 -8.785156 6.851562 -8.28125 6.21875 -7.8125 C 5.59375 -7.351562 5.28125 -6.90625 5.28125 -6.46875 C 5.28125 -6.132812 5.507812 -5.828125 5.96875 -5.546875 C 6.4375 -5.265625 7.203125 -4.992188 8.265625 -4.734375 L 11.890625 -3.78125 C 12.953125 -3.519531 13.90625 -3.210938 14.75 -2.859375 C 15.601562 -2.515625 16.273438 -2.078125 16.765625 -1.546875 C 17.265625 -1.015625 17.515625 -0.316406 17.515625 0.546875 C 17.515625 1.378906 17.238281 2.316406 16.6875 3.359375 C 16.144531 4.398438 15.300781 5.398438 14.15625 6.359375 C 13.019531 7.328125 11.535156 8.125 9.703125 8.75 C 7.878906 9.382812 5.675781 9.703125 3.09375 9.703125 C 1.363281 9.703125 -0.0859375 9.546875 -1.265625 9.234375 C -2.441406 8.921875 -3.320312 8.476562 -3.90625 7.90625 C -4.488281 7.34375 -4.78125 6.695312 -4.78125 5.96875 C -4.78125 5.4375 -4.628906 4.878906 -4.328125 4.296875 C -4.035156 3.722656 -3.597656 3.160156 -3.015625 2.609375 C -2.429688 2.066406 -1.695312 1.550781 -0.8125 1.0625 C 0.0625 0.582031 1.097656 0.175781 2.296875 -0.15625 L 2.640625 0.59375 C 1.410156 1.226562 0.5625 1.941406 0.09375 2.734375 C -0.363281 3.535156 -0.59375 4.332031 -0.59375 5.125 C -0.59375 6.457031 -0.128906 7.410156 0.796875 7.984375 C 1.722656 8.566406 2.867188 8.859375 4.234375 8.859375 C 5.328125 8.859375 6.453125 8.679688 7.609375 8.328125 C 8.773438 7.984375 9.851562 7.519531 10.84375 6.9375 C 11.84375 6.363281 12.640625 5.691406 13.234375 4.921875 C 13.835938 4.160156 14.140625 3.363281 14.140625 2.53125 C 14.140625 2.039062 13.976562 1.710938 13.65625 1.546875 C 13.34375 1.378906 12.820312 1.210938 12.09375 1.046875 L 4.484375 -0.890625 C 3.679688 -1.085938 3.03125 -1.425781 2.53125 -1.90625 C 2.039062 -2.394531 1.796875 -3.054688 1.796875 -3.890625 C 1.796875 -4.546875 2.023438 -5.222656 2.484375 -5.921875 C 2.953125 -6.617188 3.832031 -7.390625 5.125 -8.234375 C 6.414062 -9.085938 8.289062 -10.078125 10.75 -11.203125 Z M 13.296875 -25.390625 C 12.234375 -25.390625 11.335938 -25.082031 10.609375 -24.46875 C 9.878906 -23.851562 9.269531 -23.070312 8.78125 -22.125 C 8.300781 -21.175781 7.9375 -20.1875 7.6875 -19.15625 C 7.4375 -18.132812 7.257812 -17.195312 7.15625 -16.34375 C 7.0625 -15.5 7.015625 -14.878906 7.015625 -14.484375 C 7.015625 -13.421875 7.253906 -12.65625 7.734375 -12.1875 C 8.222656 -11.726562 8.863281 -11.5 9.65625 -11.5 C 10.914062 -11.5 11.9375 -11.878906 12.71875 -12.640625 C 13.5 -13.410156 14.101562 -14.359375 14.53125 -15.484375 C 14.96875 -16.609375 15.257812 -17.734375 15.40625 -18.859375 C 15.550781 -19.992188 15.625 -20.941406 15.625 -21.703125 C 15.625 -22.828125 15.472656 -23.722656 15.171875 -24.390625 C 14.878906 -25.054688 14.253906 -25.390625 13.296875 -25.390625 Z M 13.484375 -26.28125 C 15.441406 -26.28125 17.023438 -25.835938 18.234375 -24.953125 C 19.453125 -24.078125 20.0625 -22.660156 20.0625 -20.703125 C 20.0625 -19.109375 19.613281 -17.53125 18.71875 -15.96875 C 17.820312 -14.414062 16.5625 -13.132812 14.9375 -12.125 C 13.3125 -11.113281 11.382812 -10.609375 9.15625 -10.609375 C 7.332031 -10.609375 5.796875 -11.046875 4.546875 -11.921875 C 3.304688 -12.796875 2.6875 -14.164062 2.6875 -16.03125 C 2.6875 -16.925781 2.875 -17.960938 3.25 -19.140625 C 3.632812 -20.316406 4.242188 -21.441406 5.078125 -22.515625 C 5.910156 -23.597656 7.015625 -24.492188 8.390625 -25.203125 C 9.765625 -25.921875 11.460938 -26.28125 13.484375 -26.28125 Z M 17.03125 -23.703125 L 16.125 -24.046875 C 16.59375 -25.171875 17.390625 -26.164062 18.515625 -27.03125 C 19.648438 -27.894531 20.828125 -28.328125 22.046875 -28.328125 C 22.910156 -28.328125 23.609375 -28.082031 24.140625 -27.59375 C 24.671875 -27.113281 24.9375 -26.363281 24.9375 -25.34375 C 24.9375 -24.40625 24.703125 -23.722656 24.234375 -23.296875 C 23.773438 -22.867188 23.28125 -22.65625 22.75 -22.65625 C 22.21875 -22.65625 21.710938 -22.828125 21.234375 -23.171875 C 20.753906 -23.523438 20.460938 -24.082031 20.359375 -24.84375 C 20.265625 -25.601562 20.476562 -26.582031 21 -27.78125 L 21.65625 -27.625 C 20.257812 -27.09375 19.257812 -26.535156 18.65625 -25.953125 C 18.0625 -25.378906 17.519531 -24.628906 17.03125 -23.703125 Z M 17.03125 -23.703125 "/></g></g></g><g fill="#000c20" fill-opacity="1"><g transform="translate(94.6395, 45.61887)"><g><path d="M 6.078125 0 L 1.75 0 L 7.71875 -21.359375 C 7.851562 -21.753906 7.960938 -22.191406 8.046875 -22.671875 C 8.128906 -23.148438 8.101562 -23.5625 7.96875 -23.90625 C 7.832031 -24.257812 7.5 -24.4375 6.96875 -24.4375 C 6.238281 -24.4375 5.59375 -24.078125 5.03125 -23.359375 C 4.46875 -22.648438 3.835938 -21.316406 3.140625 -19.359375 L 2.484375 -17.515625 L 1.546875 -17.515625 L 2.78125 -21.15625 C 3.519531 -23.25 4.425781 -24.625 5.5 -25.28125 C 6.582031 -25.945312 7.65625 -26.28125 8.71875 -26.28125 C 9.707031 -26.28125 10.425781 -26.0625 10.875 -25.625 C 11.320312 -25.195312 11.570312 -24.644531 11.625 -23.96875 C 11.675781 -23.289062 11.625 -22.546875 11.46875 -21.734375 C 11.320312 -20.921875 11.148438 -20.113281 10.953125 -19.3125 Z M 8.359375 -10.359375 C 9.523438 -13.335938 10.65625 -15.835938 11.75 -17.859375 C 12.84375 -19.890625 13.921875 -21.523438 14.984375 -22.765625 C 16.046875 -24.015625 17.128906 -24.910156 18.234375 -25.453125 C 19.347656 -26.003906 20.503906 -26.28125 21.703125 -26.28125 C 23.265625 -26.28125 24.332031 -25.90625 24.90625 -25.15625 C 25.488281 -24.414062 25.75 -23.472656 25.6875 -22.328125 C 25.625 -21.179688 25.390625 -19.992188 24.984375 -18.765625 L 20.15625 -4.234375 C 19.863281 -3.335938 19.738281 -2.597656 19.78125 -2.015625 C 19.832031 -1.429688 20.222656 -1.140625 20.953125 -1.140625 C 21.585938 -1.140625 22.210938 -1.488281 22.828125 -2.1875 C 23.441406 -2.882812 24.097656 -4.226562 24.796875 -6.21875 L 25.4375 -8.0625 L 26.390625 -8.0625 L 25.140625 -4.4375 C 24.671875 -3.039062 24.097656 -1.976562 23.421875 -1.25 C 22.742188 -0.519531 22.03125 -0.015625 21.28125 0.265625 C 20.53125 0.554688 19.804688 0.703125 19.109375 0.703125 C 18.316406 0.703125 17.660156 0.566406 17.140625 0.296875 C 16.628906 0.0351562 16.242188 -0.3125 15.984375 -0.75 C 15.617188 -1.34375 15.5 -2.117188 15.625 -3.078125 C 15.757812 -4.046875 16.023438 -5.109375 16.421875 -6.265625 L 21.15625 -20.515625 C 21.320312 -20.972656 21.460938 -21.523438 21.578125 -22.171875 C 21.691406 -22.816406 21.664062 -23.394531 21.5 -23.90625 C 21.332031 -24.425781 20.851562 -24.6875 20.0625 -24.6875 C 19.257812 -24.6875 18.410156 -24.335938 17.515625 -23.640625 C 16.617188 -22.941406 15.691406 -21.953125 14.734375 -20.671875 C 13.773438 -19.398438 12.828125 -17.875 11.890625 -16.09375 C 10.960938 -14.320312 10.078125 -12.363281 9.234375 -10.21875 C 8.390625 -8.082031 7.617188 -5.804688 6.921875 -3.390625 Z M 8.359375 -10.359375 "/></g></g></g><g fill="#000c20" fill-opacity="0.4"><g transform="translate(120.330658, 46.718931)"><g/></g></g><g fill="#000c20" fill-opacity="0.4"><g transform="translate(128.642197, 46.718931)"><g/></g></g><g fill="#000c20" fill-opacity="0.4"><g transform="translate(136.953737, 46.718931)"><g/></g></g><g fill="#000c20" fill-opacity="1"><g transform="translate(119.230596, 45.61887)"><g/></g></g><g fill="#000c20" fill-opacity="1"><g transform="translate(127.542136, 45.61887)"><g/></g></g><g fill="#000c20" fill-opacity="1"><g transform="translate(135.853676, 45.61887)"><g/></g></g><g fill="#000c20" fill-opacity="0.4"><g transform="translate(145.274948, 46.718931)"><g><path d="M 31.953125 -35.25 C 31.828125 -33.550781 31.738281 -31.921875 31.6875 -30.359375 C 31.632812 -28.804688 31.609375 -27.613281 31.609375 -26.78125 C 31.609375 -26.050781 31.625 -25.351562 31.65625 -24.6875 C 31.6875 -24.03125 31.722656 -23.46875 31.765625 -23 L 30.609375 -23 C 30.078125 -25.789062 29.40625 -28 28.59375 -29.625 C 27.78125 -31.25 26.8125 -32.398438 25.6875 -33.078125 C 24.5625 -33.753906 23.234375 -34.09375 21.703125 -34.09375 L 20.5625 -34.09375 L 20.5625 -5.671875 C 20.5625 -4.347656 20.703125 -3.351562 20.984375 -2.6875 C 21.265625 -2.019531 21.785156 -1.578125 22.546875 -1.359375 C 23.316406 -1.148438 24.429688 -1.03125 25.890625 -1 L 25.890625 0 C 24.859375 -0.03125 23.488281 -0.0625 21.78125 -0.09375 C 20.070312 -0.132812 18.285156 -0.15625 16.421875 -0.15625 C 14.597656 -0.15625 12.875 -0.132812 11.25 -0.09375 C 9.625 -0.0625 8.3125 -0.03125 7.3125 0 L 7.3125 -1 C 8.8125 -1.03125 9.941406 -1.148438 10.703125 -1.359375 C 11.460938 -1.578125 11.972656 -2.019531 12.234375 -2.6875 C 12.503906 -3.351562 12.640625 -4.347656 12.640625 -5.671875 L 12.640625 -34.09375 L 11.546875 -34.09375 C 10.023438 -34.09375 8.695312 -33.753906 7.5625 -33.078125 C 6.4375 -32.398438 5.472656 -31.253906 4.671875 -29.640625 C 3.878906 -28.035156 3.1875 -25.820312 2.59375 -23 L 1.4375 -23 C 1.507812 -23.46875 1.550781 -24.03125 1.5625 -24.6875 C 1.582031 -25.351562 1.59375 -26.050781 1.59375 -26.78125 C 1.59375 -27.613281 1.566406 -28.804688 1.515625 -30.359375 C 1.460938 -31.921875 1.375 -33.550781 1.25 -35.25 C 2.769531 -35.21875 4.429688 -35.179688 6.234375 -35.140625 C 8.046875 -35.109375 9.863281 -35.09375 11.6875 -35.09375 C 13.519531 -35.09375 15.164062 -35.09375 16.625 -35.09375 C 18.113281 -35.09375 19.765625 -35.09375 21.578125 -35.09375 C 23.390625 -35.09375 25.207031 -35.109375 27.03125 -35.140625 C 28.851562 -35.179688 30.492188 -35.21875 31.953125 -35.25 Z M 31.953125 -35.25 "/></g></g></g><g fill="#000c20" fill-opacity="0.4"><g transform="translate(174.242794, 46.718931)"><g><path d="M 11.296875 -38.921875 L 11.296875 -21.796875 C 12.128906 -23.523438 13.25 -24.726562 14.65625 -25.40625 C 16.070312 -26.09375 17.660156 -26.4375 19.421875 -26.4375 C 20.847656 -26.4375 21.988281 -26.257812 22.84375 -25.90625 C 23.707031 -25.5625 24.390625 -25.09375 24.890625 -24.5 C 25.453125 -23.863281 25.859375 -23.046875 26.109375 -22.046875 C 26.359375 -21.054688 26.484375 -19.710938 26.484375 -18.015625 L 26.484375 -4.625 C 26.484375 -3.226562 26.722656 -2.28125 27.203125 -1.78125 C 27.679688 -1.289062 28.503906 -1.046875 29.671875 -1.046875 L 29.671875 0 C 29.035156 -0.03125 28.078125 -0.0703125 26.796875 -0.125 C 25.523438 -0.175781 24.289062 -0.203125 23.09375 -0.203125 C 21.800781 -0.203125 20.546875 -0.175781 19.328125 -0.125 C 18.117188 -0.0703125 17.21875 -0.03125 16.625 0 L 16.625 -1.046875 C 17.625 -1.046875 18.320312 -1.289062 18.71875 -1.78125 C 19.113281 -2.28125 19.3125 -3.226562 19.3125 -4.625 L 19.3125 -20.109375 C 19.3125 -20.941406 19.226562 -21.664062 19.0625 -22.28125 C 18.894531 -22.894531 18.585938 -23.375 18.140625 -23.71875 C 17.691406 -24.070312 17.054688 -24.25 16.234375 -24.25 C 15.335938 -24.25 14.515625 -24.003906 13.765625 -23.515625 C 13.015625 -23.035156 12.414062 -22.363281 11.96875 -21.5 C 11.519531 -20.644531 11.296875 -19.648438 11.296875 -18.515625 L 11.296875 -4.625 C 11.296875 -3.226562 11.492188 -2.28125 11.890625 -1.78125 C 12.296875 -1.289062 12.992188 -1.046875 13.984375 -1.046875 L 13.984375 0 C 13.390625 -0.03125 12.507812 -0.0703125 11.34375 -0.125 C 10.1875 -0.175781 9.007812 -0.203125 7.8125 -0.203125 C 6.519531 -0.203125 5.21875 -0.175781 3.90625 -0.125 C 2.59375 -0.0703125 1.609375 -0.03125 0.953125 0 L 0.953125 -1.046875 C 2.109375 -1.046875 2.925781 -1.289062 3.40625 -1.78125 C 3.882812 -2.28125 4.125 -3.226562 4.125 -4.625 L 4.125 -32.953125 C 4.125 -34.453125 3.898438 -35.554688 3.453125 -36.265625 C 3.003906 -36.984375 2.171875 -37.34375 0.953125 -37.34375 L 0.953125 -38.375 C 2.003906 -38.28125 3.03125 -38.234375 4.03125 -38.234375 C 5.394531 -38.234375 6.6875 -38.289062 7.90625 -38.40625 C 9.132812 -38.519531 10.265625 -38.691406 11.296875 -38.921875 Z M 11.296875 -38.921875 "/></g></g></g><g fill="#000c20" fill-opacity="0.4"><g transform="translate(200.224191, 46.718931)"><g><path d="M 7.65625 -38.578125 C 9.050781 -38.578125 10.15625 -38.238281 10.96875 -37.5625 C 11.78125 -36.882812 12.1875 -35.945312 12.1875 -34.75 C 12.1875 -33.550781 11.78125 -32.613281 10.96875 -31.9375 C 10.15625 -31.257812 9.050781 -30.921875 7.65625 -30.921875 C 6.269531 -30.921875 5.164062 -31.257812 4.34375 -31.9375 C 3.53125 -32.613281 3.125 -33.550781 3.125 -34.75 C 3.125 -35.945312 3.53125 -36.882812 4.34375 -37.5625 C 5.164062 -38.238281 6.269531 -38.578125 7.65625 -38.578125 Z M 11.546875 -26.28125 L 11.546875 -4.625 C 11.546875 -3.226562 11.785156 -2.28125 12.265625 -1.78125 C 12.753906 -1.289062 13.578125 -1.046875 14.734375 -1.046875 L 14.734375 0 C 14.140625 -0.03125 13.210938 -0.0703125 11.953125 -0.125 C 10.691406 -0.175781 9.410156 -0.203125 8.109375 -0.203125 C 6.816406 -0.203125 5.503906 -0.175781 4.171875 -0.125 C 2.847656 -0.0703125 1.851562 -0.03125 1.1875 0 L 1.1875 -1.046875 C 2.351562 -1.046875 3.175781 -1.289062 3.65625 -1.78125 C 4.132812 -2.28125 4.375 -3.226562 4.375 -4.625 L 4.375 -20.3125 C 4.375 -21.800781 4.148438 -22.898438 3.703125 -23.609375 C 3.253906 -24.328125 2.414062 -24.6875 1.1875 -24.6875 L 1.1875 -25.734375 C 2.25 -25.640625 3.28125 -25.59375 4.28125 -25.59375 C 5.675781 -25.59375 6.976562 -25.648438 8.1875 -25.765625 C 9.394531 -25.878906 10.515625 -26.050781 11.546875 -26.28125 Z M 11.546875 -26.28125 "/></g></g></g><g fill="#000c20" fill-opacity="0.4"><g transform="translate(211.62174, 46.718931)"><g><path d="M 19.71875 -26.4375 C 21.101562 -26.4375 22.234375 -26.257812 23.109375 -25.90625 C 23.992188 -25.5625 24.6875 -25.09375 25.1875 -24.5 C 25.71875 -23.863281 26.109375 -23.046875 26.359375 -22.046875 C 26.609375 -21.054688 26.734375 -19.710938 26.734375 -18.015625 L 26.734375 -4.625 C 26.734375 -3.226562 26.972656 -2.28125 27.453125 -1.78125 C 27.929688 -1.289062 28.753906 -1.046875 29.921875 -1.046875 L 29.921875 0 C 29.285156 -0.03125 28.335938 -0.0703125 27.078125 -0.125 C 25.816406 -0.175781 24.570312 -0.203125 23.34375 -0.203125 C 22.082031 -0.203125 20.847656 -0.175781 19.640625 -0.125 C 18.429688 -0.0703125 17.507812 -0.03125 16.875 0 L 16.875 -1.046875 C 17.875 -1.046875 18.570312 -1.289062 18.96875 -1.78125 C 19.363281 -2.28125 19.5625 -3.226562 19.5625 -4.625 L 19.5625 -20.109375 C 19.5625 -20.941406 19.476562 -21.664062 19.3125 -22.28125 C 19.144531 -22.894531 18.84375 -23.375 18.40625 -23.71875 C 17.976562 -24.070312 17.335938 -24.25 16.484375 -24.25 C 15.585938 -24.25 14.765625 -24 14.015625 -23.5 C 13.265625 -23 12.664062 -22.304688 12.21875 -21.421875 C 11.769531 -20.546875 11.546875 -19.5625 11.546875 -18.46875 L 11.546875 -4.625 C 11.546875 -3.226562 11.753906 -2.28125 12.171875 -1.78125 C 12.585938 -1.289062 13.273438 -1.046875 14.234375 -1.046875 L 14.234375 0 C 13.640625 -0.03125 12.769531 -0.0703125 11.625 -0.125 C 10.476562 -0.175781 9.289062 -0.203125 8.0625 -0.203125 C 6.800781 -0.203125 5.503906 -0.175781 4.171875 -0.125 C 2.847656 -0.0703125 1.851562 -0.03125 1.1875 0 L 1.1875 -1.046875 C 2.351562 -1.046875 3.175781 -1.289062 3.65625 -1.78125 C 4.132812 -2.28125 4.375 -3.226562 4.375 -4.625 L 4.375 -20.3125 C 4.375 -21.800781 4.148438 -22.898438 3.703125 -23.609375 C 3.253906 -24.328125 2.414062 -24.6875 1.1875 -24.6875 L 1.1875 -25.734375 C 2.25 -25.640625 3.28125 -25.59375 4.28125 -25.59375 C 5.675781 -25.59375 6.976562 -25.648438 8.1875 -25.765625 C 9.394531 -25.878906 10.515625 -26.050781 11.546875 -26.28125 L 11.546875 -21.796875 C 12.378906 -23.492188 13.507812 -24.691406 14.9375 -25.390625 C 16.363281 -26.085938 17.957031 -26.4375 19.71875 -26.4375 Z M 19.71875 -26.4375 "/></g></g></g><g fill="#000c20" fill-opacity="0.4"><g transform="translate(237.901782, 46.718931)"><g><path d="M 11.296875 -38.984375 L 11.296875 -4.625 C 11.296875 -3.226562 11.519531 -2.28125 11.96875 -1.78125 C 12.414062 -1.289062 13.1875 -1.046875 14.28125 -1.046875 L 14.28125 0 C 13.65625 -0.03125 12.734375 -0.0703125 11.515625 -0.125 C 10.304688 -0.175781 9.070312 -0.203125 7.8125 -0.203125 C 6.519531 -0.203125 5.21875 -0.175781 3.90625 -0.125 C 2.59375 -0.0703125 1.609375 -0.03125 0.953125 0 L 0.953125 -1.046875 C 2.109375 -1.046875 2.925781 -1.289062 3.40625 -1.78125 C 3.882812 -2.28125 4.125 -3.226562 4.125 -4.625 L 4.125 -33 C 4.125 -34.5 3.898438 -35.601562 3.453125 -36.3125 C 3.003906 -37.03125 2.171875 -37.390625 0.953125 -37.390625 L 0.953125 -38.4375 C 2.003906 -38.332031 3.03125 -38.28125 4.03125 -38.28125 C 5.394531 -38.28125 6.6875 -38.335938 7.90625 -38.453125 C 9.132812 -38.566406 10.265625 -38.742188 11.296875 -38.984375 Z M 27.53125 -25.734375 L 27.53125 -24.734375 C 26.5 -24.535156 25.46875 -24.101562 24.4375 -23.4375 C 23.414062 -22.78125 22.375 -21.9375 21.3125 -20.90625 L 17.46875 -16.921875 L 17.96875 -17.875 L 26.484375 -3.640625 C 26.847656 -3.035156 27.226562 -2.5 27.625 -2.03125 C 28.019531 -1.570312 28.503906 -1.242188 29.078125 -1.046875 L 29.078125 0 C 28.578125 -0.03125 27.828125 -0.0703125 26.828125 -0.125 C 25.835938 -0.175781 24.84375 -0.203125 23.84375 -0.203125 C 22.613281 -0.203125 21.382812 -0.175781 20.15625 -0.125 C 18.925781 -0.0703125 18.015625 -0.03125 17.421875 0 L 17.421875 -1.046875 C 18.085938 -1.046875 18.535156 -1.203125 18.765625 -1.515625 C 18.992188 -1.828125 18.960938 -2.234375 18.671875 -2.734375 L 13.734375 -11.65625 C 13.335938 -12.28125 12.945312 -12.679688 12.5625 -12.859375 C 12.1875 -13.046875 11.679688 -13.15625 11.046875 -13.1875 L 11.046875 -14.140625 C 11.742188 -14.203125 12.347656 -14.316406 12.859375 -14.484375 C 13.378906 -14.648438 13.851562 -14.96875 14.28125 -15.4375 L 18.078125 -19.109375 C 19.203125 -20.171875 19.765625 -21.117188 19.765625 -21.953125 C 19.765625 -22.785156 19.40625 -23.445312 18.6875 -23.9375 C 17.976562 -24.4375 17.039062 -24.703125 15.875 -24.734375 L 15.875 -25.734375 C 16.8125 -25.703125 17.828125 -25.671875 18.921875 -25.640625 C 20.015625 -25.609375 20.941406 -25.59375 21.703125 -25.59375 C 22.367188 -25.59375 23.070312 -25.597656 23.8125 -25.609375 C 24.5625 -25.628906 25.269531 -25.644531 25.9375 -25.65625 C 26.601562 -25.675781 27.132812 -25.703125 27.53125 -25.734375 Z M 27.53125 -25.734375 "/></g></g></g><g fill="#000c20" fill-opacity="0.4"><g transform="translate(262.738378, 46.718931)"><g><path d="M 7.65625 -38.578125 C 9.050781 -38.578125 10.15625 -38.238281 10.96875 -37.5625 C 11.78125 -36.882812 12.1875 -35.945312 12.1875 -34.75 C 12.1875 -33.550781 11.78125 -32.613281 10.96875 -31.9375 C 10.15625 -31.257812 9.050781 -30.921875 7.65625 -30.921875 C 6.269531 -30.921875 5.164062 -31.257812 4.34375 -31.9375 C 3.53125 -32.613281 3.125 -33.550781 3.125 -34.75 C 3.125 -35.945312 3.53125 -36.882812 4.34375 -37.5625 C 5.164062 -38.238281 6.269531 -38.578125 7.65625 -38.578125 Z M 11.546875 -26.28125 L 11.546875 -4.625 C 11.546875 -3.226562 11.785156 -2.28125 12.265625 -1.78125 C 12.753906 -1.289062 13.578125 -1.046875 14.734375 -1.046875 L 14.734375 0 C 14.140625 -0.03125 13.210938 -0.0703125 11.953125 -0.125 C 10.691406 -0.175781 9.410156 -0.203125 8.109375 -0.203125 C 6.816406 -0.203125 5.503906 -0.175781 4.171875 -0.125 C 2.847656 -0.0703125 1.851562 -0.03125 1.1875 0 L 1.1875 -1.046875 C 2.351562 -1.046875 3.175781 -1.289062 3.65625 -1.78125 C 4.132812 -2.28125 4.375 -3.226562 4.375 -4.625 L 4.375 -20.3125 C 4.375 -21.800781 4.148438 -22.898438 3.703125 -23.609375 C 3.253906 -24.328125 2.414062 -24.6875 1.1875 -24.6875 L 1.1875 -25.734375 C 2.25 -25.640625 3.28125 -25.59375 4.28125 -25.59375 C 5.675781 -25.59375 6.976562 -25.648438 8.1875 -25.765625 C 9.394531 -25.878906 10.515625 -26.050781 11.546875 -26.28125 Z M 11.546875 -26.28125 "/></g></g></g><g fill="#000c20" fill-opacity="0.4"><g transform="translate(274.135923, 46.718931)"><g><path d="M 19.71875 -26.4375 C 21.101562 -26.4375 22.234375 -26.257812 23.109375 -25.90625 C 23.992188 -25.5625 24.6875 -25.09375 25.1875 -24.5 C 25.71875 -23.863281 26.109375 -23.046875 26.359375 -22.046875 C 26.609375 -21.054688 26.734375 -19.710938 26.734375 -18.015625 L 26.734375 -4.625 C 26.734375 -3.226562 26.972656 -2.28125 27.453125 -1.78125 C 27.929688 -1.289062 28.753906 -1.046875 29.921875 -1.046875 L 29.921875 0 C 29.285156 -0.03125 28.335938 -0.0703125 27.078125 -0.125 C 25.816406 -0.175781 24.570312 -0.203125 23.34375 -0.203125 C 22.082031 -0.203125 20.847656 -0.175781 19.640625 -0.125 C 18.429688 -0.0703125 17.507812 -0.03125 16.875 0 L 16.875 -1.046875 C 17.875 -1.046875 18.570312 -1.289062 18.96875 -1.78125 C 19.363281 -2.28125 19.5625 -3.226562 19.5625 -4.625 L 19.5625 -20.109375 C 19.5625 -20.941406 19.476562 -21.664062 19.3125 -22.28125 C 19.144531 -22.894531 18.84375 -23.375 18.40625 -23.71875 C 17.976562 -24.070312 17.335938 -24.25 16.484375 -24.25 C 15.585938 -24.25 14.765625 -24 14.015625 -23.5 C 13.265625 -23 12.664062 -22.304688 12.21875 -21.421875 C 11.769531 -20.546875 11.546875 -19.5625 11.546875 -18.46875 L 11.546875 -4.625 C 11.546875 -3.226562 11.753906 -2.28125 12.171875 -1.78125 C 12.585938 -1.289062 13.273438 -1.046875 14.234375 -1.046875 L 14.234375 0 C 13.640625 -0.03125 12.769531 -0.0703125 11.625 -0.125 C 10.476562 -0.175781 9.289062 -0.203125 8.0625 -0.203125 C 6.800781 -0.203125 5.503906 -0.175781 4.171875 -0.125 C 2.847656 -0.0703125 1.851562 -0.03125 1.1875 0 L 1.1875 -1.046875 C 2.351562 -1.046875 3.175781 -1.289062 3.65625 -1.78125 C 4.132812 -2.28125 4.375 -3.226562 4.375 -4.625 L 4.375 -20.3125 C 4.375 -21.800781 4.148438 -22.898438 3.703125 -23.609375 C 3.253906 -24.328125 2.414062 -24.6875 1.1875 -24.6875 L 1.1875 -25.734375 C 2.25 -25.640625 3.28125 -25.59375 4.28125 -25.59375 C 5.675781 -25.59375 6.976562 -25.648438 8.1875 -25.765625 C 9.394531 -25.878906 10.515625 -26.050781 11.546875 -26.28125 L 11.546875 -21.796875 C 12.378906 -23.492188 13.507812 -24.691406 14.9375 -25.390625 C 16.363281 -26.085938 17.957031 -26.4375 19.71875 -26.4375 Z M 19.71875 -26.4375 "/></g></g></g><g fill="#000c20" fill-opacity="0.4"><g transform="translate(300.415965, 46.718931)"><g><path d="M 10.859375 9.359375 C 8.796875 9.359375 6.957031 9.179688 5.34375 8.828125 C 3.738281 8.484375 2.476562 7.953125 1.5625 7.234375 C 0.65625 6.523438 0.203125 5.65625 0.203125 4.625 C 0.203125 3.601562 0.664062 2.679688 1.59375 1.859375 C 2.519531 1.046875 3.894531 0.410156 5.71875 -0.046875 L 6.171875 0.75 C 5.546875 1.25 5.085938 1.785156 4.796875 2.359375 C 4.515625 2.941406 4.375 3.550781 4.375 4.1875 C 4.375 5.570312 5.015625 6.640625 6.296875 7.390625 C 7.578125 8.140625 9.3125 8.515625 11.5 8.515625 C 12.988281 8.515625 14.320312 8.3125 15.5 7.90625 C 16.6875 7.507812 17.617188 6.910156 18.296875 6.109375 C 18.972656 5.316406 19.3125 4.34375 19.3125 3.1875 C 19.3125 2.1875 18.945312 1.347656 18.21875 0.671875 C 17.488281 -0.00390625 16.03125 -0.34375 13.84375 -0.34375 L 10.75 -0.34375 C 9.394531 -0.34375 8.207031 -0.492188 7.1875 -0.796875 C 6.175781 -1.097656 5.390625 -1.570312 4.828125 -2.21875 C 4.265625 -2.863281 3.984375 -3.679688 3.984375 -4.671875 C 3.984375 -6.066406 4.53125 -7.296875 5.625 -8.359375 C 6.71875 -9.421875 8.34375 -10.414062 10.5 -11.34375 L 11 -10.953125 C 10.375 -10.554688 9.785156 -10.132812 9.234375 -9.6875 C 8.679688 -9.238281 8.40625 -8.664062 8.40625 -7.96875 C 8.40625 -6.90625 9.070312 -6.375 10.40625 -6.375 L 15.828125 -6.375 C 17.648438 -6.375 19.285156 -6.15625 20.734375 -5.71875 C 22.179688 -5.289062 23.328125 -4.585938 24.171875 -3.609375 C 25.015625 -2.628906 25.4375 -1.359375 25.4375 0.203125 C 25.4375 1.828125 24.910156 3.332031 23.859375 4.71875 C 22.816406 6.113281 21.21875 7.234375 19.0625 8.078125 C 16.90625 8.929688 14.171875 9.359375 10.859375 9.359375 Z M 11.34375 -10.609375 C 9.457031 -10.609375 7.765625 -10.890625 6.265625 -11.453125 C 4.773438 -12.015625 3.597656 -12.875 2.734375 -14.03125 C 1.867188 -15.195312 1.4375 -16.691406 1.4375 -18.515625 C 1.4375 -20.335938 1.867188 -21.835938 2.734375 -23.015625 C 3.597656 -24.203125 4.773438 -25.066406 6.265625 -25.609375 C 7.765625 -26.160156 9.457031 -26.4375 11.34375 -26.4375 C 13.238281 -26.4375 14.929688 -26.160156 16.421875 -25.609375 C 17.921875 -25.066406 19.097656 -24.203125 19.953125 -23.015625 C 20.816406 -21.835938 21.25 -20.335938 21.25 -18.515625 C 21.25 -16.691406 20.816406 -15.195312 19.953125 -14.03125 C 19.097656 -12.875 17.921875 -12.015625 16.421875 -11.453125 C 14.929688 -10.890625 13.238281 -10.609375 11.34375 -10.609375 Z M 11.34375 -11.5 C 12.238281 -11.5 12.9375 -12.003906 13.4375 -13.015625 C 13.9375 -14.023438 14.1875 -15.859375 14.1875 -18.515625 C 14.1875 -21.171875 13.9375 -23.003906 13.4375 -24.015625 C 12.9375 -25.023438 12.238281 -25.53125 11.34375 -25.53125 C 10.488281 -25.53125 9.800781 -25.023438 9.28125 -24.015625 C 8.769531 -23.003906 8.515625 -21.171875 8.515625 -18.515625 C 8.515625 -15.859375 8.769531 -14.023438 9.28125 -13.015625 C 9.800781 -12.003906 10.488281 -11.5 11.34375 -11.5 Z M 19.109375 -22.15625 L 18.125 -22.5 C 18.613281 -23.789062 19.414062 -24.867188 20.53125 -25.734375 C 21.644531 -26.597656 22.847656 -27.03125 24.140625 -27.03125 C 25.203125 -27.03125 26.003906 -26.738281 26.546875 -26.15625 C 27.097656 -25.570312 27.375 -24.816406 27.375 -23.890625 C 27.375 -22.898438 27.109375 -22.160156 26.578125 -21.671875 C 26.046875 -21.191406 25.453125 -20.953125 24.796875 -20.953125 C 24.222656 -20.953125 23.695312 -21.148438 23.21875 -21.546875 C 22.738281 -21.953125 22.460938 -22.5625 22.390625 -23.375 C 22.328125 -24.1875 22.613281 -25.238281 23.25 -26.53125 L 23.59375 -26.234375 C 22.332031 -25.765625 21.382812 -25.222656 20.75 -24.609375 C 20.125 -24.003906 19.578125 -23.1875 19.109375 -22.15625 Z M 19.109375 -22.15625 "/></g></g></g><g fill="#000c20" fill-opacity="1"><g transform="translate(144.174887, 45.61887)"><g><path d="M 31.953125 -35.25 C 31.828125 -33.550781 31.738281 -31.921875 31.6875 -30.359375 C 31.632812 -28.804688 31.609375 -27.613281 31.609375 -26.78125 C 31.609375 -26.050781 31.625 -25.351562 31.65625 -24.6875 C 31.6875 -24.03125 31.722656 -23.46875 31.765625 -23 L 30.609375 -23 C 30.078125 -25.789062 29.40625 -28 28.59375 -29.625 C 27.78125 -31.25 26.8125 -32.398438 25.6875 -33.078125 C 24.5625 -33.753906 23.234375 -34.09375 21.703125 -34.09375 L 20.5625 -34.09375 L 20.5625 -5.671875 C 20.5625 -4.347656 20.703125 -3.351562 20.984375 -2.6875 C 21.265625 -2.019531 21.785156 -1.578125 22.546875 -1.359375 C 23.316406 -1.148438 24.429688 -1.03125 25.890625 -1 L 25.890625 0 C 24.859375 -0.03125 23.488281 -0.0625 21.78125 -0.09375 C 20.070312 -0.132812 18.285156 -0.15625 16.421875 -0.15625 C 14.597656 -0.15625 12.875 -0.132812 11.25 -0.09375 C 9.625 -0.0625 8.3125 -0.03125 7.3125 0 L 7.3125 -1 C 8.8125 -1.03125 9.941406 -1.148438 10.703125 -1.359375 C 11.460938 -1.578125 11.972656 -2.019531 12.234375 -2.6875 C 12.503906 -3.351562 12.640625 -4.347656 12.640625 -5.671875 L 12.640625 -34.09375 L 11.546875 -34.09375 C 10.023438 -34.09375 8.695312 -33.753906 7.5625 -33.078125 C 6.4375 -32.398438 5.472656 -31.253906 4.671875 -29.640625 C 3.878906 -28.035156 3.1875 -25.820312 2.59375 -23 L 1.4375 -23 C 1.507812 -23.46875 1.550781 -24.03125 1.5625 -24.6875 C 1.582031 -25.351562 1.59375 -26.050781 1.59375 -26.78125 C 1.59375 -27.613281 1.566406 -28.804688 1.515625 -30.359375 C 1.460938 -31.921875 1.375 -33.550781 1.25 -35.25 C 2.769531 -35.21875 4.429688 -35.179688 6.234375 -35.140625 C 8.046875 -35.109375 9.863281 -35.09375 11.6875 -35.09375 C 13.519531 -35.09375 15.164062 -35.09375 16.625 -35.09375 C 18.113281 -35.09375 19.765625 -35.09375 21.578125 -35.09375 C 23.390625 -35.09375 25.207031 -35.109375 27.03125 -35.140625 C 28.851562 -35.179688 30.492188 -35.21875 31.953125 -35.25 Z M 31.953125 -35.25 "/></g></g></g><g fill="#000c20" fill-opacity="1"><g transform="translate(173.142733, 45.61887)"><g><path d="M 11.296875 -38.921875 L 11.296875 -21.796875 C 12.128906 -23.523438 13.25 -24.726562 14.65625 -25.40625 C 16.070312 -26.09375 17.660156 -26.4375 19.421875 -26.4375 C 20.847656 -26.4375 21.988281 -26.257812 22.84375 -25.90625 C 23.707031 -25.5625 24.390625 -25.09375 24.890625 -24.5 C 25.453125 -23.863281 25.859375 -23.046875 26.109375 -22.046875 C 26.359375 -21.054688 26.484375 -19.710938 26.484375 -18.015625 L 26.484375 -4.625 C 26.484375 -3.226562 26.722656 -2.28125 27.203125 -1.78125 C 27.679688 -1.289062 28.503906 -1.046875 29.671875 -1.046875 L 29.671875 0 C 29.035156 -0.03125 28.078125 -0.0703125 26.796875 -0.125 C 25.523438 -0.175781 24.289062 -0.203125 23.09375 -0.203125 C 21.800781 -0.203125 20.546875 -0.175781 19.328125 -0.125 C 18.117188 -0.0703125 17.21875 -0.03125 16.625 0 L 16.625 -1.046875 C 17.625 -1.046875 18.320312 -1.289062 18.71875 -1.78125 C 19.113281 -2.28125 19.3125 -3.226562 19.3125 -4.625 L 19.3125 -20.109375 C 19.3125 -20.941406 19.226562 -21.664062 19.0625 -22.28125 C 18.894531 -22.894531 18.585938 -23.375 18.140625 -23.71875 C 17.691406 -24.070312 17.054688 -24.25 16.234375 -24.25 C 15.335938 -24.25 14.515625 -24.003906 13.765625 -23.515625 C 13.015625 -23.035156 12.414062 -22.363281 11.96875 -21.5 C 11.519531 -20.644531 11.296875 -19.648438 11.296875 -18.515625 L 11.296875 -4.625 C 11.296875 -3.226562 11.492188 -2.28125 11.890625 -1.78125 C 12.296875 -1.289062 12.992188 -1.046875 13.984375 -1.046875 L 13.984375 0 C 13.390625 -0.03125 12.507812 -0.0703125 11.34375 -0.125 C 10.1875 -0.175781 9.007812 -0.203125 7.8125 -0.203125 C 6.519531 -0.203125 5.21875 -0.175781 3.90625 -0.125 C 2.59375 -0.0703125 1.609375 -0.03125 0.953125 0 L 0.953125 -1.046875 C 2.109375 -1.046875 2.925781 -1.289062 3.40625 -1.78125 C 3.882812 -2.28125 4.125 -3.226562 4.125 -4.625 L 4.125 -32.953125 C 4.125 -34.453125 3.898438 -35.554688 3.453125 -36.265625 C 3.003906 -36.984375 2.171875 -37.34375 0.953125 -37.34375 L 0.953125 -38.375 C 2.003906 -38.28125 3.03125 -38.234375 4.03125 -38.234375 C 5.394531 -38.234375 6.6875 -38.289062 7.90625 -38.40625 C 9.132812 -38.519531 10.265625 -38.691406 11.296875 -38.921875 Z M 11.296875 -38.921875 "/></g></g></g><g fill="#000c20" fill-opacity="1"><g transform="translate(199.12413, 45.61887)"><g><path d="M 7.65625 -38.578125 C 9.050781 -38.578125 10.15625 -38.238281 10.96875 -37.5625 C 11.78125 -36.882812 12.1875 -35.945312 12.1875 -34.75 C 12.1875 -33.550781 11.78125 -32.613281 10.96875 -31.9375 C 10.15625 -31.257812 9.050781 -30.921875 7.65625 -30.921875 C 6.269531 -30.921875 5.164062 -31.257812 4.34375 -31.9375 C 3.53125 -32.613281 3.125 -33.550781 3.125 -34.75 C 3.125 -35.945312 3.53125 -36.882812 4.34375 -37.5625 C 5.164062 -38.238281 6.269531 -38.578125 7.65625 -38.578125 Z M 11.546875 -26.28125 L 11.546875 -4.625 C 11.546875 -3.226562 11.785156 -2.28125 12.265625 -1.78125 C 12.753906 -1.289062 13.578125 -1.046875 14.734375 -1.046875 L 14.734375 0 C 14.140625 -0.03125 13.210938 -0.0703125 11.953125 -0.125 C 10.691406 -0.175781 9.410156 -0.203125 8.109375 -0.203125 C 6.816406 -0.203125 5.503906 -0.175781 4.171875 -0.125 C 2.847656 -0.0703125 1.851562 -0.03125 1.1875 0 L 1.1875 -1.046875 C 2.351562 -1.046875 3.175781 -1.289062 3.65625 -1.78125 C 4.132812 -2.28125 4.375 -3.226562 4.375 -4.625 L 4.375 -20.3125 C 4.375 -21.800781 4.148438 -22.898438 3.703125 -23.609375 C 3.253906 -24.328125 2.414062 -24.6875 1.1875 -24.6875 L 1.1875 -25.734375 C 2.25 -25.640625 3.28125 -25.59375 4.28125 -25.59375 C 5.675781 -25.59375 6.976562 -25.648438 8.1875 -25.765625 C 9.394531 -25.878906 10.515625 -26.050781 11.546875 -26.28125 Z M 11.546875 -26.28125 "/></g></g></g><g fill="#000c20" fill-opacity="1"><g transform="translate(210.521679, 45.61887)"><g><path d="M 19.71875 -26.4375 C 21.101562 -26.4375 22.234375 -26.257812 23.109375 -25.90625 C 23.992188 -25.5625 24.6875 -25.09375 25.1875 -24.5 C 25.71875 -23.863281 26.109375 -23.046875 26.359375 -22.046875 C 26.609375 -21.054688 26.734375 -19.710938 26.734375 -18.015625 L 26.734375 -4.625 C 26.734375 -3.226562 26.972656 -2.28125 27.453125 -1.78125 C 27.929688 -1.289062 28.753906 -1.046875 29.921875 -1.046875 L 29.921875 0 C 29.285156 -0.03125 28.335938 -0.0703125 27.078125 -0.125 C 25.816406 -0.175781 24.570312 -0.203125 23.34375 -0.203125 C 22.082031 -0.203125 20.847656 -0.175781 19.640625 -0.125 C 18.429688 -0.0703125 17.507812 -0.03125 16.875 0 L 16.875 -1.046875 C 17.875 -1.046875 18.570312 -1.289062 18.96875 -1.78125 C 19.363281 -2.28125 19.5625 -3.226562 19.5625 -4.625 L 19.5625 -20.109375 C 19.5625 -20.941406 19.476562 -21.664062 19.3125 -22.28125 C 19.144531 -22.894531 18.84375 -23.375 18.40625 -23.71875 C 17.976562 -24.070312 17.335938 -24.25 16.484375 -24.25 C 15.585938 -24.25 14.765625 -24 14.015625 -23.5 C 13.265625 -23 12.664062 -22.304688 12.21875 -21.421875 C 11.769531 -20.546875 11.546875 -19.5625 11.546875 -18.46875 L 11.546875 -4.625 C 11.546875 -3.226562 11.753906 -2.28125 12.171875 -1.78125 C 12.585938 -1.289062 13.273438 -1.046875 14.234375 -1.046875 L 14.234375 0 C 13.640625 -0.03125 12.769531 -0.0703125 11.625 -0.125 C 10.476562 -0.175781 9.289062 -0.203125 8.0625 -0.203125 C 6.800781 -0.203125 5.503906 -0.175781 4.171875 -0.125 C 2.847656 -0.0703125 1.851562 -0.03125 1.1875 0 L 1.1875 -1.046875 C 2.351562 -1.046875 3.175781 -1.289062 3.65625 -1.78125 C 4.132812 -2.28125 4.375 -3.226562 4.375 -4.625 L 4.375 -20.3125 C 4.375 -21.800781 4.148438 -22.898438 3.703125 -23.609375 C 3.253906 -24.328125 2.414062 -24.6875 1.1875 -24.6875 L 1.1875 -25.734375 C 2.25 -25.640625 3.28125 -25.59375 4.28125 -25.59375 C 5.675781 -25.59375 6.976562 -25.648438 8.1875 -25.765625 C 9.394531 -25.878906 10.515625 -26.050781 11.546875 -26.28125 L 11.546875 -21.796875 C 12.378906 -23.492188 13.507812 -24.691406 14.9375 -25.390625 C 16.363281 -26.085938 17.957031 -26.4375 19.71875 -26.4375 Z M 19.71875 -26.4375 "/></g></g></g><g fill="#000c20" fill-opacity="1"><g transform="translate(236.80172, 45.61887)"><g><path d="M 11.296875 -38.984375 L 11.296875 -4.625 C 11.296875 -3.226562 11.519531 -2.28125 11.96875 -1.78125 C 12.414062 -1.289062 13.1875 -1.046875 14.28125 -1.046875 L 14.28125 0 C 13.65625 -0.03125 12.734375 -0.0703125 11.515625 -0.125 C 10.304688 -0.175781 9.070312 -0.203125 7.8125 -0.203125 C 6.519531 -0.203125 5.21875 -0.175781 3.90625 -0.125 C 2.59375 -0.0703125 1.609375 -0.03125 0.953125 0 L 0.953125 -1.046875 C 2.109375 -1.046875 2.925781 -1.289062 3.40625 -1.78125 C 3.882812 -2.28125 4.125 -3.226562 4.125 -4.625 L 4.125 -33 C 4.125 -34.5 3.898438 -35.601562 3.453125 -36.3125 C 3.003906 -37.03125 2.171875 -37.390625 0.953125 -37.390625 L 0.953125 -38.4375 C 2.003906 -38.332031 3.03125 -38.28125 4.03125 -38.28125 C 5.394531 -38.28125 6.6875 -38.335938 7.90625 -38.453125 C 9.132812 -38.566406 10.265625 -38.742188 11.296875 -38.984375 Z M 27.53125 -25.734375 L 27.53125 -24.734375 C 26.5 -24.535156 25.46875 -24.101562 24.4375 -23.4375 C 23.414062 -22.78125 22.375 -21.9375 21.3125 -20.90625 L 17.46875 -16.921875 L 17.96875 -17.875 L 26.484375 -3.640625 C 26.847656 -3.035156 27.226562 -2.5 27.625 -2.03125 C 28.019531 -1.570312 28.503906 -1.242188 29.078125 -1.046875 L 29.078125 0 C 28.578125 -0.03125 27.828125 -0.0703125 26.828125 -0.125 C 25.835938 -0.175781 24.84375 -0.203125 23.84375 -0.203125 C 22.613281 -0.203125 21.382812 -0.175781 20.15625 -0.125 C 18.925781 -0.0703125 18.015625 -0.03125 17.421875 0 L 17.421875 -1.046875 C 18.085938 -1.046875 18.535156 -1.203125 18.765625 -1.515625 C 18.992188 -1.828125 18.960938 -2.234375 18.671875 -2.734375 L 13.734375 -11.65625 C 13.335938 -12.28125 12.945312 -12.679688 12.5625 -12.859375 C 12.1875 -13.046875 11.679688 -13.15625 11.046875 -13.1875 L 11.046875 -14.140625 C 11.742188 -14.203125 12.347656 -14.316406 12.859375 -14.484375 C 13.378906 -14.648438 13.851562 -14.96875 14.28125 -15.4375 L 18.078125 -19.109375 C 19.203125 -20.171875 19.765625 -21.117188 19.765625 -21.953125 C 19.765625 -22.785156 19.40625 -23.445312 18.6875 -23.9375 C 17.976562 -24.4375 17.039062 -24.703125 15.875 -24.734375 L 15.875 -25.734375 C 16.8125 -25.703125 17.828125 -25.671875 18.921875 -25.640625 C 20.015625 -25.609375 20.941406 -25.59375 21.703125 -25.59375 C 22.367188 -25.59375 23.070312 -25.597656 23.8125 -25.609375 C 24.5625 -25.628906 25.269531 -25.644531 25.9375 -25.65625 C 26.601562 -25.675781 27.132812 -25.703125 27.53125 -25.734375 Z M 27.53125 -25.734375 "/></g></g></g><g fill="#000c20" fill-opacity="1"><g transform="translate(261.638317, 45.61887)"><g><path d="M 7.65625 -38.578125 C 9.050781 -38.578125 10.15625 -38.238281 10.96875 -37.5625 C 11.78125 -36.882812 12.1875 -35.945312 12.1875 -34.75 C 12.1875 -33.550781 11.78125 -32.613281 10.96875 -31.9375 C 10.15625 -31.257812 9.050781 -30.921875 7.65625 -30.921875 C 6.269531 -30.921875 5.164062 -31.257812 4.34375 -31.9375 C 3.53125 -32.613281 3.125 -33.550781 3.125 -34.75 C 3.125 -35.945312 3.53125 -36.882812 4.34375 -37.5625 C 5.164062 -38.238281 6.269531 -38.578125 7.65625 -38.578125 Z M 11.546875 -26.28125 L 11.546875 -4.625 C 11.546875 -3.226562 11.785156 -2.28125 12.265625 -1.78125 C 12.753906 -1.289062 13.578125 -1.046875 14.734375 -1.046875 L 14.734375 0 C 14.140625 -0.03125 13.210938 -0.0703125 11.953125 -0.125 C 10.691406 -0.175781 9.410156 -0.203125 8.109375 -0.203125 C 6.816406 -0.203125 5.503906 -0.175781 4.171875 -0.125 C 2.847656 -0.0703125 1.851562 -0.03125 1.1875 0 L 1.1875 -1.046875 C 2.351562 -1.046875 3.175781 -1.289062 3.65625 -1.78125 C 4.132812 -2.28125 4.375 -3.226562 4.375 -4.625 L 4.375 -20.3125 C 4.375 -21.800781 4.148438 -22.898438 3.703125 -23.609375 C 3.253906 -24.328125 2.414062 -24.6875 1.1875 -24.6875 L 1.1875 -25.734375 C 2.25 -25.640625 3.28125 -25.59375 4.28125 -25.59375 C 5.675781 -25.59375 6.976562 -25.648438 8.1875 -25.765625 C 9.394531 -25.878906 10.515625 -26.050781 11.546875 -26.28125 Z M 11.546875 -26.28125 "/></g></g></g><g fill="#000c20" fill-opacity="1"><g transform="translate(273.035862, 45.61887)"><g><path d="M 19.71875 -26.4375 C 21.101562 -26.4375 22.234375 -26.257812 23.109375 -25.90625 C 23.992188 -25.5625 24.6875 -25.09375 25.1875 -24.5 C 25.71875 -23.863281 26.109375 -23.046875 26.359375 -22.046875 C 26.609375 -21.054688 26.734375 -19.710938 26.734375 -18.015625 L 26.734375 -4.625 C 26.734375 -3.226562 26.972656 -2.28125 27.453125 -1.78125 C 27.929688 -1.289062 28.753906 -1.046875 29.921875 -1.046875 L 29.921875 0 C 29.285156 -0.03125 28.335938 -0.0703125 27.078125 -0.125 C 25.816406 -0.175781 24.570312 -0.203125 23.34375 -0.203125 C 22.082031 -0.203125 20.847656 -0.175781 19.640625 -0.125 C 18.429688 -0.0703125 17.507812 -0.03125 16.875 0 L 16.875 -1.046875 C 17.875 -1.046875 18.570312 -1.289062 18.96875 -1.78125 C 19.363281 -2.28125 19.5625 -3.226562 19.5625 -4.625 L 19.5625 -20.109375 C 19.5625 -20.941406 19.476562 -21.664062 19.3125 -22.28125 C 19.144531 -22.894531 18.84375 -23.375 18.40625 -23.71875 C 17.976562 -24.070312 17.335938 -24.25 16.484375 -24.25 C 15.585938 -24.25 14.765625 -24 14.015625 -23.5 C 13.265625 -23 12.664062 -22.304688 12.21875 -21.421875 C 11.769531 -20.546875 11.546875 -19.5625 11.546875 -18.46875 L 11.546875 -4.625 C 11.546875 -3.226562 11.753906 -2.28125 12.171875 -1.78125 C 12.585938 -1.289062 13.273438 -1.046875 14.234375 -1.046875 L 14.234375 0 C 13.640625 -0.03125 12.769531 -0.0703125 11.625 -0.125 C 10.476562 -0.175781 9.289062 -0.203125 8.0625 -0.203125 C 6.800781 -0.203125 5.503906 -0.175781 4.171875 -0.125 C 2.847656 -0.0703125 1.851562 -0.03125 1.1875 0 L 1.1875 -1.046875 C 2.351562 -1.046875 3.175781 -1.289062 3.65625 -1.78125 C 4.132812 -2.28125 4.375 -3.226562 4.375 -4.625 L 4.375 -20.3125 C 4.375 -21.800781 4.148438 -22.898438 3.703125 -23.609375 C 3.253906 -24.328125 2.414062 -24.6875 1.1875 -24.6875 L 1.1875 -25.734375 C 2.25 -25.640625 3.28125 -25.59375 4.28125 -25.59375 C 5.675781 -25.59375 6.976562 -25.648438 8.1875 -25.765625 C 9.394531 -25.878906 10.515625 -26.050781 11.546875 -26.28125 L 11.546875 -21.796875 C 12.378906 -23.492188 13.507812 -24.691406 14.9375 -25.390625 C 16.363281 -26.085938 17.957031 -26.4375 19.71875 -26.4375 Z M 19.71875 -26.4375 "/></g></g></g><g fill="#000c20" fill-opacity="1"><g transform="translate(299.315904, 45.61887)"><g><path d="M 10.859375 9.359375 C 8.796875 9.359375 6.957031 9.179688 5.34375 8.828125 C 3.738281 8.484375 2.476562 7.953125 1.5625 7.234375 C 0.65625 6.523438 0.203125 5.65625 0.203125 4.625 C 0.203125 3.601562 0.664062 2.679688 1.59375 1.859375 C 2.519531 1.046875 3.894531 0.410156 5.71875 -0.046875 L 6.171875 0.75 C 5.546875 1.25 5.085938 1.785156 4.796875 2.359375 C 4.515625 2.941406 4.375 3.550781 4.375 4.1875 C 4.375 5.570312 5.015625 6.640625 6.296875 7.390625 C 7.578125 8.140625 9.3125 8.515625 11.5 8.515625 C 12.988281 8.515625 14.320312 8.3125 15.5 7.90625 C 16.6875 7.507812 17.617188 6.910156 18.296875 6.109375 C 18.972656 5.316406 19.3125 4.34375 19.3125 3.1875 C 19.3125 2.1875 18.945312 1.347656 18.21875 0.671875 C 17.488281 -0.00390625 16.03125 -0.34375 13.84375 -0.34375 L 10.75 -0.34375 C 9.394531 -0.34375 8.207031 -0.492188 7.1875 -0.796875 C 6.175781 -1.097656 5.390625 -1.570312 4.828125 -2.21875 C 4.265625 -2.863281 3.984375 -3.679688 3.984375 -4.671875 C 3.984375 -6.066406 4.53125 -7.296875 5.625 -8.359375 C 6.71875 -9.421875 8.34375 -10.414062 10.5 -11.34375 L 11 -10.953125 C 10.375 -10.554688 9.785156 -10.132812 9.234375 -9.6875 C 8.679688 -9.238281 8.40625 -8.664062 8.40625 -7.96875 C 8.40625 -6.90625 9.070312 -6.375 10.40625 -6.375 L 15.828125 -6.375 C 17.648438 -6.375 19.285156 -6.15625 20.734375 -5.71875 C 22.179688 -5.289062 23.328125 -4.585938 24.171875 -3.609375 C 25.015625 -2.628906 25.4375 -1.359375 25.4375 0.203125 C 25.4375 1.828125 24.910156 3.332031 23.859375 4.71875 C 22.816406 6.113281 21.21875 7.234375 19.0625 8.078125 C 16.90625 8.929688 14.171875 9.359375 10.859375 9.359375 Z M 11.34375 -10.609375 C 9.457031 -10.609375 7.765625 -10.890625 6.265625 -11.453125 C 4.773438 -12.015625 3.597656 -12.875 2.734375 -14.03125 C 1.867188 -15.195312 1.4375 -16.691406 1.4375 -18.515625 C 1.4375 -20.335938 1.867188 -21.835938 2.734375 -23.015625 C 3.597656 -24.203125 4.773438 -25.066406 6.265625 -25.609375 C 7.765625 -26.160156 9.457031 -26.4375 11.34375 -26.4375 C 13.238281 -26.4375 14.929688 -26.160156 16.421875 -25.609375 C 17.921875 -25.066406 19.097656 -24.203125 19.953125 -23.015625 C 20.816406 -21.835938 21.25 -20.335938 21.25 -18.515625 C 21.25 -16.691406 20.816406 -15.195312 19.953125 -14.03125 C 19.097656 -12.875 17.921875 -12.015625 16.421875 -11.453125 C 14.929688 -10.890625 13.238281 -10.609375 11.34375 -10.609375 Z M 11.34375 -11.5 C 12.238281 -11.5 12.9375 -12.003906 13.4375 -13.015625 C 13.9375 -14.023438 14.1875 -15.859375 14.1875 -18.515625 C 14.1875 -21.171875 13.9375 -23.003906 13.4375 -24.015625 C 12.9375 -25.023438 12.238281 -25.53125 11.34375 -25.53125 C 10.488281 -25.53125 9.800781 -25.023438 9.28125 -24.015625 C 8.769531 -23.003906 8.515625 -21.171875 8.515625 -18.515625 C 8.515625 -15.859375 8.769531 -14.023438 9.28125 -13.015625 C 9.800781 -12.003906 10.488281 -11.5 11.34375 -11.5 Z M 19.109375 -22.15625 L 18.125 -22.5 C 18.613281 -23.789062 19.414062 -24.867188 20.53125 -25.734375 C 21.644531 -26.597656 22.847656 -27.03125 24.140625 -27.03125 C 25.203125 -27.03125 26.003906 -26.738281 26.546875 -26.15625 C 27.097656 -25.570312 27.375 -24.816406 27.375 -23.890625 C 27.375 -22.898438 27.109375 -22.160156 26.578125 -21.671875 C 26.046875 -21.191406 25.453125 -20.953125 24.796875 -20.953125 C 24.222656 -20.953125 23.695312 -21.148438 23.21875 -21.546875 C 22.738281 -21.953125 22.460938 -22.5625 22.390625 -23.375 C 22.328125 -24.1875 22.613281 -25.238281 23.25 -26.53125 L 23.59375 -26.234375 C 22.332031 -25.765625 21.382812 -25.222656 20.75 -24.609375 C 20.125 -24.003906 19.578125 -23.1875 19.109375 -22.15625 Z M 19.109375 -22.15625 "/></g></g></g></g></g></g></g><g mask="url(#fd2f7b7775)"><g transform="matrix(1, 0, 0, 1, 129, 0)"><g clip-path="url(#33fd7bad71)"><g fill="#000c20" fill-opacity="1"><g transform="translate(1.171245, 32.728963)"><g><path d="M 7.21875 0 L 7.21875 -1.59375 L 10.46875 -2.125 C 10.96875 -2.21875 11.289062 -2.40625 11.4375 -2.6875 C 11.582031 -2.96875 11.65625 -3.367188 11.65625 -3.890625 L 11.65625 -6.171875 L 0.6875 -6.171875 L 0.359375 -7.96875 L 11.65625 -25.078125 L 14.828125 -25.609375 L 15.21875 -25.296875 L 15.21875 -8.625 L 19.15625 -8.625 L 19.15625 -6.171875 L 15.21875 -6.171875 L 15.21875 -3.78125 C 15.21875 -3.226562 15.289062 -2.832031 15.4375 -2.59375 C 15.582031 -2.351562 15.921875 -2.1875 16.453125 -2.09375 L 18.515625 -1.734375 L 18.515625 0 Z M 3.390625 -8.625 L 11.65625 -8.625 L 11.65625 -21 Z M 3.390625 -8.625 "/></g></g></g></g></g></g></svg>